<svg xmlns="http://www.w3.org/2000/svg" version="1.1" xmlns:xlink="http://www.w3.org/1999/xlink" xmlns:svgjs="http://svgjs.dev/svgjs" width="1000" height="1000" viewBox="0 0 1000 1000"><g transform="matrix(1,0,0,1,-0.14221556886212738,-0.14221556886229791)"><svg viewBox="0 0 334 334" data-background-color="#fe1515" preserveAspectRatio="xMidYMid meet" height="1000" width="1000" xmlns="http://www.w3.org/2000/svg" xmlns:xlink="http://www.w3.org/1999/xlink"><g id="tight-bounds" transform="matrix(1,0,0,1,0.04749999999998522,0.04750000000001364)"><svg viewBox="0 0 333.90454557049503 333.90454557049503" height="333.90454557049503" width="333.90454557049503"><g><svg></svg></g><g><svg viewBox="0 0 333.90454557049503 333.90454557049503" height="333.90454557049503" width="333.90454557049503"><g><path d="M0 166.952c0-92.205 74.747-166.952 166.952-166.952 92.205 0 166.952 74.747 166.953 166.952 0 92.205-74.747 166.952-166.953 166.953-92.205 0-166.952-74.747-166.952-166.953zM166.952 328.136c89.019 0 161.183-72.164 161.184-161.184 0-89.019-72.164-161.183-161.184-161.183-89.019 0-161.183 72.164-161.183 161.183 0 89.019 72.164 161.183 161.183 161.184z" data-fill-palette-color="tertiary" fill="#ffffff" stroke="transparent"></path><ellipse rx="160.27418187383762" ry="160.27418187383762" cx="166.95227278524752" cy="166.95227278524752" fill="#ffffff" stroke="transparent" stroke-width="0" fill-opacity="1" data-fill-palette-color="tertiary"></ellipse></g><g transform="matrix(1,0,0,1,70.15854814104044,71.17305217166896)"><svg viewBox="0 0 193.58744928841415 191.55844122715712" height="191.55844122715712" width="193.58744928841415"><g><svg viewBox="0 0 193.58744928841415 191.55844122715712" height="191.55844122715712" width="193.58744928841415"><g><svg viewBox="0 0 213.15844122715714 210.92430777912287" height="191.55844122715712" width="193.58744928841415"><g transform="matrix(1,0,0,1,0,113.04713442950666)"><svg viewBox="0 0 213.15844122715714 97.87717334961621" height="97.87717334961621" width="213.15844122715714"><g id="textblocktransform"><svg viewBox="0 0 213.15844122715714 97.87717334961621" height="97.87717334961621" width="213.15844122715714" id="textblock"><g><svg viewBox="0 0 213.15844122715714 70.43873248482569" height="70.43873248482569" width="213.15844122715714"><g transform="matrix(1,0,0,1,0,0)"><svg width="213.15844122715714" viewBox="0.55 -32.2 98.34 32.5" height="70.43873248482569" data-palette-color="#fe1515"><path d="M18.05-32.1L28.4 0 23.1 0 22.35-3.6 20.95-8.05 14.15-8.2 8-8.05 6.5-3.85 5.7 0 0.55 0 12-32.1 18.05-32.1ZM14.5-12.15L19.65-12.25 15.05-27.05 14.7-27.05 9.45-12.25 14.5-12.15ZM35.25-5.4Q36.5-5.4 37.2-4.67 37.9-3.95 37.9-2.65L37.9-2.65Q37.9-1.3 37.15-0.5 36.4 0.3 35.1 0.3L35.1 0.3Q33.8 0.3 33.07-0.45 32.35-1.2 32.35-2.5L32.35-2.5Q32.35-3.8 33.12-4.6 33.9-5.4 35.25-5.4L35.25-5.4ZM60.3-32.1L60.6-31.65 60.3-27.75 54.5-28.05 51.8-28.05 51.55-10.1 51.8 0 46.6 0 46.9-9.65 46.65-28.05 43.95-28.05 38.05-27.75 37.7-28.2 38.1-32.1 60.3-32.1ZM63.14-5.4Q64.39-5.4 65.09-4.67 65.79-3.95 65.79-2.65L65.79-2.65Q65.79-1.3 65.04-0.5 64.29 0.3 62.99 0.3L62.99 0.3Q61.69 0.3 60.97-0.45 60.24-1.2 60.24-2.5L60.24-2.5Q60.24-3.8 61.02-4.6 61.79-5.4 63.14-5.4L63.14-5.4ZM98.89-32.2L98.59-9.6 98.74 0 93.19 0 78.09-24.05 77.74-24.05 77.69-10.75 77.84 0 73.14 0 73.39-9.5 73.19-32.1 78.64-32.1 93.79-8.05 94.19-8.05 94.09-31.85 98.89-32.2Z" opacity="1" transform="matrix(1,0,0,1,0,0)" fill="#fe1515" class="undefined-text-0" data-fill-palette-color="quaternary" id="text-0"></path></svg></g></svg></g><g transform="matrix(1,0,0,1,0,87.0676266949134)"><svg viewBox="0 0 213.15844122715714 10.809546654702807" height="10.809546654702807" width="213.15844122715714"><g transform="matrix(1,0,0,1,0,0)"><svg width="213.15844122715714" viewBox="3.95 -37.75 952.37 48.3" height="10.809546654702807" data-palette-color="#fe1515"><path d="M21.25 0L13.9 0 13.9-19.05 3.95-19.05 3.95-24.8 21.25-24.8 21.25 0ZM17.25-28.7L17.25-28.7Q15.1-28.7 13.73-29.9 12.35-31.1 12.35-33.15L12.35-33.15Q12.35-35.2 13.73-36.48 15.1-37.75 17.25-37.75L17.25-37.75Q19.4-37.75 20.78-36.48 22.15-35.2 22.15-33.15L22.15-33.15Q22.15-31.1 20.78-29.9 19.4-28.7 17.25-28.7ZM77.15 0.6L77.15 0.6Q74.2 0.6 71.7-0.28 69.2-1.15 67.32-2.8 65.45-4.45 64.4-6.88 63.35-9.3 63.35-12.4L63.35-12.4Q63.35-15.5 64.52-17.93 65.7-20.35 67.67-22 69.65-23.65 72.25-24.53 74.84-25.4 77.7-25.4L77.7-25.4Q80.65-25.4 83.02-24.45 85.4-23.5 87-22.05L87-22.05 83.59-17.5Q80.84-19.45 78.09-19.45L78.09-19.45Q74.9-19.45 72.9-17.55 70.9-15.65 70.9-12.4L70.9-12.4Q70.9-9.15 72.82-7.25 74.75-5.35 77.84-5.35L77.84-5.35Q79.8-5.35 81.42-6.05 83.05-6.75 84.4-7.7L84.4-7.7 87.34-3.05Q85.09-1.15 82.4-0.28 79.7 0.6 77.15 0.6ZM101.19 0.6L101.19 0.6Q99.29 0.6 97.79 0.03 96.29-0.55 95.24-1.58 94.19-2.6 93.62-3.95 93.04-5.3 93.04-6.9L93.04-6.9Q93.04-9 93.94-10.58 94.84-12.15 96.82-13.25 98.79-14.35 101.89-15.03 104.99-15.7 109.39-15.95L109.39-15.95Q109.19-17.65 107.92-18.6 106.64-19.55 104.09-19.55L104.09-19.55Q102.29-19.55 100.47-18.93 98.64-18.3 96.54-17.25L96.54-17.25 93.94-22.05Q96.49-23.5 99.42-24.45 102.34-25.4 105.54-25.4L105.54-25.4Q110.74-25.4 113.74-22.65 116.74-19.9 116.74-14.2L116.74-14.2 116.74 0 110.74 0 110.19-2.8 109.99-2.8Q108.09-1.35 105.84-0.38 103.59 0.6 101.19 0.6ZM103.54-5.1L103.54-5.1Q105.19-5.1 106.64-5.78 108.09-6.45 109.39-7.45L109.39-7.45 109.39-11.55Q106.64-11.4 104.84-11.05 103.04-10.7 101.99-10.18 100.94-9.65 100.52-8.95 100.09-8.25 100.09-7.45L100.09-7.45Q100.09-6.25 101.02-5.68 101.94-5.1 103.54-5.1ZM130.94 0L123.59 0 123.59-24.8 129.59-24.8 130.14-21.5 130.34-21.5Q131.94-23.1 134.02-24.25 136.09-25.4 138.89-25.4L138.89-25.4Q143.09-25.4 145.04-22.7 146.99-20 146.99-15.3L146.99-15.3 146.99 0 139.64 0 139.64-14.35Q139.64-16.85 138.84-18 138.04-19.15 135.99-19.15L135.99-19.15Q134.49-19.15 133.37-18.5 132.24-17.85 130.94-16.55L130.94-16.55 130.94 0ZM192.74 0L184.24 0 180.19-24.8 187.29-24.8 188.84-13.3Q189.09-11.45 189.24-9.65 189.39-7.85 189.64-5.95L189.64-5.95 189.79-5.95Q190.04-7.85 190.29-9.7 190.54-11.55 190.94-13.3L190.94-13.3 192.49-21.5 197.84-21.5 199.44-13.3Q199.84-11.45 200.14-9.65 200.44-7.85 200.69-5.95L200.69-5.95 200.89-5.95Q201.14-7.85 201.26-9.65 201.39-11.45 201.59-13.3L201.59-13.3 202.99-24.8 209.79-24.8 205.99 0 197.34 0 195.99-8.05Q195.74-9.65 195.54-11.45 195.34-13.25 195.09-15.4L195.09-15.4 194.89-15.4Q194.74-13.8 194.54-12.1 194.34-10.4 194.04-8.05L194.04-8.05 192.74 0ZM224.98 0.6L224.98 0.6Q222.53 0.6 220.26-0.28 217.98-1.15 216.21-2.8 214.43-4.45 213.38-6.88 212.33-9.3 212.33-12.4L212.33-12.4Q212.33-15.5 213.38-17.93 214.43-20.35 216.21-22 217.98-23.65 220.26-24.53 222.53-25.4 224.98-25.4L224.98-25.4Q227.43-25.4 229.71-24.53 231.98-23.65 233.76-22 235.53-20.35 236.58-17.93 237.63-15.5 237.63-12.4L237.63-12.4Q237.63-9.3 236.58-6.88 235.53-4.45 233.76-2.8 231.98-1.15 229.71-0.28 227.43 0.6 224.98 0.6ZM224.98-5.35L224.98-5.35Q227.53-5.35 228.81-7.25 230.08-9.15 230.08-12.4L230.08-12.4Q230.08-15.65 228.81-17.55 227.53-19.45 224.98-19.45L224.98-19.45Q222.43-19.45 221.16-17.55 219.88-15.65 219.88-12.4L219.88-12.4Q219.88-9.15 221.16-7.25 222.43-5.35 224.98-5.35ZM253.13 0L245.78 0 245.78-24.8 251.78-24.8 252.38-19.4 252.53-19.4Q254.38-22.45 256.98-23.93 259.58-25.4 262.58-25.4L262.58-25.4Q264.23-25.4 265.25-25.15 266.28-24.9 267.38-24.4L267.38-24.4 265.88-18.25Q264.73-18.6 263.81-18.78 262.88-18.95 261.48-18.95L261.48-18.95Q259.18-18.95 256.96-17.6 254.73-16.25 253.13-12.9L253.13-12.9 253.13 0ZM281.13 0L273.78 0 273.78-35.05 281.13-35.05 281.13-14.8 281.33-14.8 290.43-24.8 298.48-24.8 289.03-14.7 299.23 0 291.28 0 284.78-10.15 281.13-6.25 281.13 0ZM338.72 0L331.72 0 331.72-24.8 337.27-24.8 337.77-21.75 337.97-21.75Q338.67-23.25 339.92-24.33 341.17-25.4 343.32-25.4L343.32-25.4Q344.92-25.4 346.05-24.38 347.17-23.35 347.62-21.35L347.62-21.35Q348.32-23.05 349.65-24.23 350.97-25.4 353.12-25.4L353.12-25.4Q355.82-25.4 357.25-23.28 358.67-21.15 358.67-17.4L358.67-17.4 358.67 0 351.67 0 351.67-16.9Q351.67-18.05 351.37-18.6 351.07-19.15 350.32-19.15L350.32-19.15Q349.62-19.15 349.12-18.55 348.62-17.95 348.07-16.75L348.07-16.75 348.07 0 342.32 0 342.32-16.9Q342.32-19.15 340.92-19.15L340.92-19.15Q340.22-19.15 339.72-18.55 339.22-17.95 338.72-16.75L338.72-16.75 338.72 0ZM371.17 0.6L371.17 0.6Q369.27 0.6 367.77 0.03 366.27-0.55 365.22-1.58 364.17-2.6 363.6-3.95 363.02-5.3 363.02-6.9L363.02-6.9Q363.02-9 363.92-10.58 364.82-12.15 366.8-13.25 368.77-14.35 371.87-15.03 374.97-15.7 379.37-15.95L379.37-15.95Q379.17-17.65 377.9-18.6 376.62-19.55 374.07-19.55L374.07-19.55Q372.27-19.55 370.45-18.93 368.62-18.3 366.52-17.25L366.52-17.25 363.92-22.05Q366.47-23.5 369.4-24.45 372.32-25.4 375.52-25.4L375.52-25.4Q380.72-25.4 383.72-22.65 386.72-19.9 386.72-14.2L386.72-14.2 386.72 0 380.72 0 380.17-2.8 379.97-2.8Q378.07-1.35 375.82-0.38 373.57 0.6 371.17 0.6ZM373.52-5.1L373.52-5.1Q375.17-5.1 376.62-5.78 378.07-6.45 379.37-7.45L379.37-7.45 379.37-11.55Q376.62-11.4 374.82-11.05 373.02-10.7 371.97-10.18 370.92-9.65 370.5-8.95 370.07-8.25 370.07-7.45L370.07-7.45Q370.07-6.25 371-5.68 371.92-5.1 373.52-5.1ZM403.82 10.55L403.82 10.55Q401.42 10.55 399.34 10.18 397.27 9.8 395.77 9.03 394.27 8.25 393.42 7.05 392.57 5.85 392.57 4.2L392.57 4.2Q392.57 1.15 396.42-0.75L396.42-0.75 396.42-0.95Q395.37-1.6 394.64-2.6 393.92-3.6 393.92-5.2L393.92-5.2Q393.92-6.45 394.74-7.7 395.57-8.95 396.87-9.85L396.87-9.85 396.87-10.05Q395.52-10.95 394.57-12.58 393.62-14.2 393.62-16.4L393.62-16.4Q393.62-18.65 394.49-20.33 395.37-22 396.82-23.13 398.27-24.25 400.19-24.83 402.12-25.4 404.22-25.4L404.22-25.4Q406.52-25.4 408.32-24.8L408.32-24.8 418.37-24.8 418.37-19.4 413.37-19.4Q413.77-18.85 414.12-17.98 414.47-17.1 414.47-16.15L414.47-16.15Q414.47-14 413.67-12.45 412.87-10.9 411.49-9.88 410.12-8.85 408.24-8.35 406.37-7.85 404.22-7.85L404.22-7.85Q402.62-7.85 400.82-8.35L400.82-8.35Q400.27-7.95 399.99-7.55 399.72-7.15 399.72-6.5L399.72-6.5Q399.72-5.5 400.72-5.08 401.72-4.65 403.92-4.65L403.92-4.65 408.52-4.65Q413.42-4.65 415.99-3.2 418.57-1.75 418.57 1.6L418.57 1.6Q418.57 3.55 417.52 5.2 416.47 6.85 414.57 8.03 412.67 9.2 409.92 9.88 407.17 10.55 403.82 10.55ZM404.22-12.3L404.22-12.3Q405.77-12.3 406.87-13.33 407.97-14.35 407.97-16.4L407.97-16.4Q407.97-18.35 406.87-19.4 405.77-20.45 404.22-20.45L404.22-20.45Q402.67-20.45 401.59-19.4 400.52-18.35 400.52-16.4L400.52-16.4Q400.52-14.35 401.59-13.33 402.67-12.3 404.22-12.3ZM404.87 5.9L404.87 5.9Q407.87 5.9 409.72 5.05 411.57 4.2 411.57 2.9L411.57 2.9Q411.57 1.7 410.47 1.35 409.37 1 407.22 1L407.22 1 404.12 1Q402.77 1 401.89 0.93 401.02 0.85 400.32 0.65L400.32 0.65Q399.37 1.25 398.97 1.83 398.57 2.4 398.57 3.1L398.57 3.1Q398.57 4.5 400.24 5.2 401.92 5.9 404.87 5.9ZM441.22 0L433.87 0 433.87-19.05 423.92-19.05 423.92-24.8 441.22-24.8 441.22 0ZM437.22-28.7L437.22-28.7Q435.07-28.7 433.69-29.9 432.32-31.1 432.32-33.15L432.32-33.15Q432.32-35.2 433.69-36.48 435.07-37.75 437.22-37.75L437.22-37.75Q439.37-37.75 440.74-36.48 442.12-35.2 442.12-33.15L442.12-33.15Q442.12-31.1 440.74-29.9 439.37-28.7 437.22-28.7ZM467.11 0.6L467.11 0.6Q464.16 0.6 461.66-0.28 459.16-1.15 457.29-2.8 455.41-4.45 454.36-6.88 453.31-9.3 453.31-12.4L453.31-12.4Q453.31-15.5 454.49-17.93 455.66-20.35 457.64-22 459.61-23.65 462.21-24.53 464.81-25.4 467.66-25.4L467.66-25.4Q470.61-25.4 472.99-24.45 475.36-23.5 476.96-22.05L476.96-22.05 473.56-17.5Q470.81-19.45 468.06-19.45L468.06-19.45Q464.86-19.45 462.86-17.55 460.86-15.65 460.86-12.4L460.86-12.4Q460.86-9.15 462.79-7.25 464.71-5.35 467.81-5.35L467.81-5.35Q469.76-5.35 471.39-6.05 473.01-6.75 474.36-7.7L474.36-7.7 477.31-3.05Q475.06-1.15 472.36-0.28 469.66 0.6 467.11 0.6ZM522.71 0L514.21 0 510.16-24.8 517.26-24.8 518.81-13.3Q519.06-11.45 519.21-9.65 519.36-7.85 519.61-5.95L519.61-5.95 519.76-5.95Q520.01-7.85 520.26-9.7 520.51-11.55 520.91-13.3L520.91-13.3 522.46-21.5 527.81-21.5 529.41-13.3Q529.81-11.45 530.11-9.65 530.41-7.85 530.66-5.95L530.66-5.95 530.86-5.95Q531.11-7.85 531.23-9.65 531.36-11.45 531.56-13.3L531.56-13.3 532.96-24.8 539.76-24.8 535.96 0 527.31 0 525.96-8.05Q525.71-9.65 525.51-11.45 525.31-13.25 525.06-15.4L525.06-15.4 524.86-15.4Q524.71-13.8 524.51-12.1 524.31-10.4 524.01-8.05L524.01-8.05 522.71 0ZM561.2 0L553.85 0 553.85-19.05 543.9-19.05 543.9-24.8 561.2-24.8 561.2 0ZM557.2-28.7L557.2-28.7Q555.05-28.7 553.68-29.9 552.3-31.1 552.3-33.15L552.3-33.15Q552.3-35.2 553.68-36.48 555.05-37.75 557.2-37.75L557.2-37.75Q559.35-37.75 560.73-36.48 562.1-35.2 562.1-33.15L562.1-33.15Q562.1-31.1 560.73-29.9 559.35-28.7 557.2-28.7ZM589.35 0.6L589.35 0.6Q586.4 0.6 584.35-0.2 582.3-1 581.03-2.43 579.75-3.85 579.2-5.85 578.65-7.85 578.65-10.3L578.65-10.3 578.65-19.05 572.4-19.05 572.4-24.5 579-24.8 579.95-32.4 586-32.4 586-24.8 596.5-24.8 596.5-19.05 586-19.05 586-10.35Q586-7.5 587.25-6.33 588.5-5.15 591.25-5.15L591.25-5.15Q592.65-5.15 593.83-5.4 595-5.65 596.15-6.05L596.15-6.05 597.45-0.75Q595.8-0.25 593.83 0.18 591.85 0.6 589.35 0.6ZM610.9 0L603.55 0 603.55-35.05 610.9-35.05 610.9-26.45 610.5-21.7 610.65-21.7Q612.05-23.15 614.05-24.28 616.05-25.4 618.9-25.4L618.9-25.4Q623.1-25.4 625.02-22.7 626.95-20 626.95-15.3L626.95-15.3 626.95 0 619.6 0 619.6-14.35Q619.6-16.85 618.8-18 618-19.15 615.95-19.15L615.95-19.15Q614.45-19.15 613.32-18.5 612.2-17.85 610.9-16.55L610.9-16.55 610.9 0ZM671.14 0.6L671.14 0.6Q669.24 0.6 667.74 0.03 666.24-0.55 665.19-1.58 664.14-2.6 663.57-3.95 662.99-5.3 662.99-6.9L662.99-6.9Q662.99-9 663.89-10.58 664.79-12.15 666.77-13.25 668.74-14.35 671.84-15.03 674.94-15.7 679.34-15.95L679.34-15.95Q679.14-17.65 677.87-18.6 676.59-19.55 674.04-19.55L674.04-19.55Q672.24-19.55 670.42-18.93 668.59-18.3 666.49-17.25L666.49-17.25 663.89-22.05Q666.44-23.5 669.37-24.45 672.29-25.4 675.49-25.4L675.49-25.4Q680.69-25.4 683.69-22.65 686.69-19.9 686.69-14.2L686.69-14.2 686.69 0 680.69 0 680.14-2.8 679.94-2.8Q678.04-1.35 675.79-0.38 673.54 0.6 671.14 0.6ZM673.49-5.1L673.49-5.1Q675.14-5.1 676.59-5.78 678.04-6.45 679.34-7.45L679.34-7.45 679.34-11.55Q676.59-11.4 674.79-11.05 672.99-10.7 671.94-10.18 670.89-9.65 670.47-8.95 670.04-8.25 670.04-7.45L670.04-7.45Q670.04-6.25 670.97-5.68 671.89-5.1 673.49-5.1ZM731.09 0L723.74 0 723.74-35.05 731.09-35.05 731.09-14.8 731.29-14.8 740.39-24.8 748.44-24.8 738.99-14.7 749.19 0 741.24 0 734.74-10.15 731.09-6.25 731.09 0ZM766.44 0.6L766.44 0.6Q763.54 0.6 761.01-0.28 758.49-1.15 756.64-2.8 754.79-4.45 753.74-6.88 752.69-9.3 752.69-12.4L752.69-12.4Q752.69-15.45 753.76-17.88 754.84-20.3 756.64-21.98 758.44-23.65 760.76-24.53 763.09-25.4 765.59-25.4L765.59-25.4Q768.44-25.4 770.64-24.5 772.84-23.6 774.31-22 775.79-20.4 776.54-18.23 777.29-16.05 777.29-13.5L777.29-13.5Q777.29-12.5 777.16-11.58 777.04-10.65 776.94-10.2L776.94-10.2 760.04-10.2Q760.59-7.5 762.49-6.25 764.39-5 767.44-5L767.44-5Q769.14-5 770.66-5.45 772.19-5.9 773.84-6.75L773.84-6.75 776.29-2.3Q774.14-0.95 771.54-0.18 768.94 0.6 766.44 0.6ZM765.84-19.8L765.84-19.8Q763.64-19.8 762.16-18.65 760.69-17.5 760.14-15.15L760.14-15.15 770.74-15.15Q770.19-19.8 765.84-19.8ZM787.08 9.7L787.08 9.7Q785.98 9.7 785.03 9.58 784.08 9.45 783.28 9.2L783.28 9.2 784.58 3.6Q785.53 3.9 786.53 3.9L786.53 3.9Q788.68 3.9 789.91 3 791.13 2.1 791.73 0.65L791.73 0.65 792.23-0.65 781.48-24.8 788.78-24.8 792.93-14.15Q793.63-12.4 794.23-10.53 794.83-8.65 795.43-6.7L795.43-6.7 795.63-6.7Q796.13-8.55 796.73-10.43 797.33-12.3 797.88-14.15L797.88-14.15 801.53-24.8 808.48-24.8 798.68 0.25Q797.78 2.6 796.73 4.38 795.68 6.15 794.33 7.33 792.98 8.5 791.21 9.1 789.43 9.7 787.08 9.7ZM826.83 0.6L826.83 0.6Q825.08 0.6 823.36-0.25 821.63-1.1 820.08-2.7L820.08-2.7 819.88-2.7 819.28 0 813.53 0 813.53-35.05 820.88-35.05 820.88-26.45 820.63-22.55 820.78-22.55Q822.18-23.9 823.98-24.65 825.78-25.4 827.58-25.4L827.58-25.4Q829.88-25.4 831.76-24.5 833.63-23.6 834.91-21.98 836.18-20.35 836.88-18.03 837.58-15.7 837.58-12.85L837.58-12.85Q837.58-9.65 836.68-7.15 835.78-4.65 834.28-2.93 832.78-1.2 830.86-0.3 828.93 0.6 826.83 0.6ZM825.18-5.4L825.18-5.4Q827.23-5.4 828.63-7.13 830.03-8.85 830.03-12.7L830.03-12.7Q830.03-19.4 825.48-19.4L825.48-19.4Q823.13-19.4 820.88-17.1L820.88-17.1 820.88-7.05Q821.93-6.15 823.06-5.78 824.18-5.4 825.18-5.4ZM854.93 0.6L854.93 0.6Q852.48 0.6 850.2-0.28 847.93-1.15 846.15-2.8 844.38-4.45 843.33-6.88 842.28-9.3 842.28-12.4L842.28-12.4Q842.28-15.5 843.33-17.93 844.38-20.35 846.15-22 847.93-23.65 850.2-24.53 852.48-25.4 854.93-25.4L854.93-25.4Q857.38-25.4 859.65-24.53 861.93-23.65 863.7-22 865.48-20.35 866.53-17.93 867.58-15.5 867.58-12.4L867.58-12.4Q867.58-9.3 866.53-6.88 865.48-4.45 863.7-2.8 861.93-1.15 859.65-0.28 857.38 0.6 854.93 0.6ZM854.93-5.35L854.93-5.35Q857.48-5.35 858.75-7.25 860.03-9.15 860.03-12.4L860.03-12.4Q860.03-15.65 858.75-17.55 857.48-19.45 854.93-19.45L854.93-19.45Q852.38-19.45 851.1-17.55 849.83-15.65 849.83-12.4L849.83-12.4Q849.83-9.15 851.1-7.25 852.38-5.35 854.93-5.35ZM881.13 0.6L881.13 0.6Q879.23 0.6 877.73 0.03 876.23-0.55 875.18-1.58 874.13-2.6 873.55-3.95 872.98-5.3 872.98-6.9L872.98-6.9Q872.98-9 873.88-10.58 874.78-12.15 876.75-13.25 878.73-14.35 881.83-15.03 884.93-15.7 889.33-15.95L889.33-15.95Q889.13-17.65 887.85-18.6 886.58-19.55 884.03-19.55L884.03-19.55Q882.23-19.55 880.4-18.93 878.58-18.3 876.48-17.25L876.48-17.25 873.88-22.05Q876.43-23.5 879.35-24.45 882.28-25.4 885.48-25.4L885.48-25.4Q890.68-25.4 893.68-22.65 896.68-19.9 896.68-14.2L896.68-14.2 896.68 0 890.68 0 890.13-2.8 889.93-2.8Q888.03-1.35 885.78-0.38 883.53 0.6 881.13 0.6ZM883.48-5.1L883.48-5.1Q885.13-5.1 886.58-5.78 888.03-6.45 889.33-7.45L889.33-7.45 889.33-11.55Q886.58-11.4 884.78-11.05 882.98-10.7 881.93-10.18 880.88-9.65 880.45-8.95 880.03-8.25 880.03-7.45L880.03-7.45Q880.03-6.25 880.95-5.68 881.88-5.1 883.48-5.1ZM913.07 0L905.72 0 905.72-24.8 911.72-24.8 912.32-19.4 912.47-19.4Q914.32-22.45 916.92-23.93 919.52-25.4 922.52-25.4L922.52-25.4Q924.17-25.4 925.2-25.15 926.22-24.9 927.32-24.4L927.32-24.4 925.82-18.25Q924.67-18.6 923.75-18.78 922.82-18.95 921.42-18.95L921.42-18.95Q919.12-18.95 916.9-17.6 914.67-16.25 913.07-12.9L913.07-12.9 913.07 0ZM942.72 0.6L942.72 0.6Q940.37 0.6 938.45-0.3 936.52-1.2 935.15-2.88 933.77-4.55 933.02-6.95 932.27-9.35 932.27-12.4L932.27-12.4Q932.27-15.45 933.17-17.85 934.07-20.25 935.55-21.93 937.02-23.6 938.92-24.5 940.82-25.4 942.87-25.4L942.87-25.4Q944.97-25.4 946.42-24.73 947.87-24.05 949.12-22.75L949.12-22.75 949.32-22.75 948.97-26.6 948.97-35.05 956.32-35.05 956.32 0 950.32 0 949.77-2.55 949.62-2.55Q948.22-1.2 946.42-0.3 944.62 0.6 942.72 0.6ZM944.62-5.4L944.62-5.4Q945.87-5.4 946.92-5.93 947.97-6.45 948.97-7.7L948.97-7.7 948.97-17.75Q947.97-18.65 946.95-19.03 945.92-19.4 944.82-19.4L944.82-19.4Q942.77-19.4 941.3-17.7 939.82-16 939.82-12.5L939.82-12.5Q939.82-8.8 941.07-7.1 942.32-5.4 944.62-5.4Z" opacity="1" transform="matrix(1,0,0,1,0,0)" fill="#fe1515" class="undefined-text-1" data-fill-palette-color="quaternary" id="text-1"></path></svg></g></svg></g></svg></g></svg></g><g transform="matrix(1,0,0,1,7.780283104791238,0)"><svg viewBox="0 0 197.59787501757467 96.41824021941895" height="96.41824021941895" width="197.59787501757467"><g><svg xmlns="http://www.w3.org/2000/svg" xmlns:xlink="http://www.w3.org/1999/xlink" version="1.0" x="0" y="0" viewBox="0.19999999999999996 25.7 99.6 48.599999999999994" enable-background="new 0 0 100 100" xml:space="preserve" height="96.41824021941895" width="197.59787501757467" class="icon-icon-0" data-fill-palette-color="quaternary" id="icon-0"><path d="M1.5 36h7.7c0.7 0 1.3-0.6 1.3-1.3l0 0V27c0-0.7-0.6-1.3-1.3-1.3l0 0H1.5c-0.7 0-1.3 0.6-1.3 1.3l0 0v7.7C0.2 35.5 0.8 36 1.5 36L1.5 36z" fill="#fe1515" data-fill-palette-color="quaternary"></path><path d="M84.5 74.3h14c0.7 0 1.3-0.6 1.3-1.3l0 0v-7.7c0-0.7-0.6-1.3-1.3-1.3l0 0h-14c-0.7 0-1.3 0.6-1.3 1.3l0 0V73C83.1 73.8 83.8 74.3 84.5 74.3L84.5 74.3z" fill="#fe1515" data-fill-palette-color="quaternary"></path><path d="M79.3 74.3H20.5c-0.7 0-1.3-0.6-1.3-1.3l0 0v-7.7c0-0.7 0.6-1.3 1.3-1.3l0 0h58.8c0.7 0 1.3 0.6 1.3 1.3l0 0V73C80.6 73.8 80 74.3 79.3 74.3L79.3 74.3z" fill="#fe1515" data-fill-palette-color="quaternary"></path><path d="M1.5 74.3h14c0.7 0 1.3-0.6 1.3-1.3l0 0v-7.7c0-0.7-0.6-1.3-1.3-1.3l0 0h-14c-0.7 0-1.3 0.6-1.3 1.3l0 0V73C0.2 73.8 0.8 74.3 1.5 74.3L1.5 74.3z" fill="#fe1515" data-fill-palette-color="quaternary"></path><path d="M1.5 48.8h12.8c0.7 0 1.3-0.6 1.3-1.3l0 0v-7.7c0-0.7-0.6-1.3-1.3-1.3l0 0H1.5c-0.7 0-1.3 0.6-1.3 1.3l0 0v7.7C0.2 48.2 0.8 48.8 1.5 48.8L1.5 48.8z" fill="#fe1515" data-fill-palette-color="quaternary"></path><path d="M83.1 48.8h15.3c0.7 0 1.3-0.6 1.3-1.3l0 0v-7.7c0-0.7-0.6-1.3-1.3-1.3l0 0H83.1c-0.7 0-1.3 0.6-1.3 1.3l0 0v7.7C82 48.2 82.5 48.8 83.1 48.8L83.1 48.8z" fill="#fe1515" data-fill-palette-color="quaternary"></path><path d="M14.2 36h7.7c0.7 0 1.3-0.6 1.3-1.3l0 0V27c0-0.7-0.6-1.3-1.3-1.3l0 0h-7.7c-0.7 0-1.3 0.6-1.3 1.3l0 0v7.7C13 35.5 13.5 36 14.2 36L14.2 36z" fill="#fe1515" data-fill-palette-color="quaternary"></path><path d="M27 36h7.7c0.7 0 1.3-0.6 1.3-1.3l0 0V27c0-0.7-0.6-1.3-1.3-1.3l0 0H27c-0.7 0-1.3 0.6-1.3 1.3l0 0v7.7C25.7 35.5 26.3 36 27 36L27 36z" fill="#fe1515" data-fill-palette-color="quaternary"></path><path d="M39.8 36h7.7c0.7 0 1.3-0.6 1.3-1.3l0 0V27c0-0.7-0.6-1.3-1.3-1.3l0 0h-7.7c-0.7 0-1.3 0.6-1.3 1.3l0 0v7.7C38.5 35.5 39 36 39.8 36L39.8 36z" fill="#fe1515" data-fill-palette-color="quaternary"></path><path d="M52.5 36h7.7c0.7 0 1.3-0.6 1.3-1.3l0 0V27c0-0.7-0.6-1.3-1.3-1.3l0 0h-7.7c-0.7 0-1.3 0.6-1.3 1.3l0 0v7.7C51.3 35.5 51.8 36 52.5 36L52.5 36z" fill="#fe1515" data-fill-palette-color="quaternary"></path><path d="M65.3 36H73c0.7 0 1.3-0.6 1.3-1.3l0 0V27c0-0.7-0.6-1.3-1.3-1.3l0 0h-7.7c-0.7 0-1.3 0.6-1.3 1.3l0 0v7.7C64 35.5 64.5 36 65.3 36L65.3 36z" fill="#fe1515" data-fill-palette-color="quaternary"></path><path d="M78 36h7.7c0.7 0 1.3-0.6 1.3-1.3l0 0V27c0-0.7-0.6-1.3-1.3-1.3l0 0H78c-0.7 0-1.3 0.6-1.3 1.3l0 0v7.7C76.8 35.5 77.3 36 78 36L78 36z" fill="#fe1515" data-fill-palette-color="quaternary"></path><path d="M90.8 36h7.7c0.7 0 1.3-0.6 1.3-1.3l0 0V27c0-0.7-0.6-1.3-1.3-1.3l0 0h-7.7c-0.7 0-1.3 0.6-1.3 1.3l0 0v7.7C89.5 35.5 90.1 36 90.8 36L90.8 36z" fill="#fe1515" data-fill-palette-color="quaternary"></path><path d="M19.3 48.8H27c0.7 0 1.3-0.6 1.3-1.3l0 0v-7.7c0-0.7-0.6-1.3-1.3-1.3l0 0h-7.7c-0.7 0-1.3 0.6-1.3 1.3l0 0v7.7C18 48.2 18.5 48.8 19.3 48.8L19.3 48.8z" fill="#fe1515" data-fill-palette-color="quaternary"></path><path d="M32 48.8h7.7c0.7 0 1.3-0.6 1.3-1.3l0 0v-7.7c0-0.7-0.6-1.3-1.3-1.3l0 0H32c-0.7 0-1.3 0.6-1.3 1.3l0 0v7.7C30.8 48.2 31.3 48.8 32 48.8L32 48.8z" fill="#fe1515" data-fill-palette-color="quaternary"></path><path d="M44.8 48.8h7.7c0.7 0 1.3-0.6 1.3-1.3l0 0v-7.7c0-0.7-0.6-1.3-1.3-1.3l0 0h-7.7c-0.7 0-1.3 0.6-1.3 1.3l0 0v7.7C43.5 48.2 44.2 48.8 44.8 48.8L44.8 48.8z" fill="#fe1515" data-fill-palette-color="quaternary"></path><path d="M57.6 48.8h7.7c0.7 0 1.3-0.6 1.3-1.3l0 0v-7.7c0-0.7-0.6-1.3-1.3-1.3l0 0h-7.7c-0.7 0-1.3 0.6-1.3 1.3l0 0v7.7C56.3 48.2 57 48.8 57.6 48.8L57.6 48.8z" fill="#fe1515" data-fill-palette-color="quaternary"></path><path d="M70.3 48.8H78c0.7 0 1.3-0.6 1.3-1.3l0 0v-7.7c0-0.7-0.6-1.3-1.3-1.3l0 0h-7.7c-0.7 0-1.3 0.6-1.3 1.3l0 0v7.7C69.1 48.2 69.6 48.8 70.3 48.8L70.3 48.8z" fill="#fe1515" data-fill-palette-color="quaternary"></path><path d="M1.5 61.6h7.7c0.7 0 1.3-0.6 1.3-1.3l0 0v-7.7c0-0.7-0.6-1.3-1.3-1.3l0 0H1.5c-0.7 0-1.3 0.6-1.3 1.3l0 0v7.7C0.2 61 0.8 61.6 1.5 61.6L1.5 61.6z" fill="#fe1515" data-fill-palette-color="quaternary"></path><path d="M14.2 61.6h7.7c0.7 0 1.3-0.6 1.3-1.3l0 0v-7.7c0-0.7-0.6-1.3-1.3-1.3l0 0h-7.7c-0.7 0-1.3 0.6-1.3 1.3l0 0v7.7C13 61 13.5 61.6 14.2 61.6L14.2 61.6z" fill="#fe1515" data-fill-palette-color="quaternary"></path><path d="M27 61.6h7.7c0.7 0 1.3-0.6 1.3-1.3l0 0v-7.7c0-0.7-0.6-1.3-1.3-1.3l0 0H27c-0.7 0-1.3 0.6-1.3 1.3l0 0v7.7C25.7 61 26.3 61.6 27 61.6L27 61.6z" fill="#fe1515" data-fill-palette-color="quaternary"></path><path d="M39.8 61.6h7.7c0.7 0 1.3-0.6 1.3-1.3l0 0v-7.7c0-0.7-0.6-1.3-1.3-1.3l0 0h-7.7c-0.7 0-1.3 0.6-1.3 1.3l0 0v7.7C38.5 61 39 61.6 39.8 61.6L39.8 61.6z" fill="#fe1515" data-fill-palette-color="quaternary"></path><path d="M52.5 61.6h7.7c0.7 0 1.3-0.6 1.3-1.3l0 0v-7.7c0-0.7-0.6-1.3-1.3-1.3l0 0h-7.7c-0.7 0-1.3 0.6-1.3 1.3l0 0v7.7C51.3 61 51.8 61.6 52.5 61.6L52.5 61.6z" fill="#fe1515" data-fill-palette-color="quaternary"></path><path d="M65.3 61.6H73c0.7 0 1.3-0.6 1.3-1.3l0 0v-7.7c0-0.7-0.6-1.3-1.3-1.3l0 0h-7.7c-0.7 0-1.3 0.6-1.3 1.3l0 0v7.7C64 61 64.5 61.6 65.3 61.6L65.3 61.6z" fill="#fe1515" data-fill-palette-color="quaternary"></path><path d="M78 61.6h7.7c0.7 0 1.3-0.6 1.3-1.3l0 0v-7.7c0-0.7-0.6-1.3-1.3-1.3l0 0H78c-0.7 0-1.3 0.6-1.3 1.3l0 0v7.7C76.8 61 77.3 61.6 78 61.6L78 61.6z" fill="#fe1515" data-fill-palette-color="quaternary"></path><path d="M90.8 61.6h7.7c0.7 0 1.3-0.6 1.3-1.3l0 0v-7.7c0-0.7-0.6-1.3-1.3-1.3l0 0h-7.7c-0.7 0-1.3 0.6-1.3 1.3l0 0v7.7C89.5 61 90.1 61.6 90.8 61.6L90.8 61.6z" fill="#fe1515" data-fill-palette-color="quaternary"></path></svg></g></svg></g><g></g></svg></g></svg></g></svg></g></svg></g><defs></defs></svg><rect width="333.90454557049503" height="333.90454557049503" fill="none" stroke="none" visibility="hidden"></rect></g></svg></g></svg>